<svg width="603.9287963867188px" height="120.80984191894531px" xmlns="http://www.w3.org/2000/svg" viewBox="-51.964398193359386 14.595079040527345 603.9287963867188 120.80984191894531" style="background: none;" preserveAspectRatio="xMidYMid"><defs><filter id="editing-cake" x="-100%" y="-100%" width="300%" height="300%"><feFlood flood-color="#597e76" result="flood-shadow"></feFlood><feFlood flood-color="#dae8e5"></feFlood><feComposite operator="in" in2="SourceAlpha"></feComposite><feConvolveMatrix order="7,10" divisor="1" result="conv" kernelMatrix="0 0 0 1 0 0 0 0 0 1 0 1 0 0 0 0 1 0 1 0 0 0 1 0 0 0 1 0 0 1 0 0 0 1 0 0 1 0 0 0 1 0 1 0 0 0 0 0 1 1 0 0 0 0 0 1 0 1 1 0 1 1 0 0 0 0 1 0 0 0 "></feConvolveMatrix><feGaussianBlur stdDeviation="0.5"></feGaussianBlur><feOffset dy="4" result="offset"></feOffset><feComposite operator="in" in="flood-shadow" in2="offset"></feComposite><feGaussianBlur stdDeviation="4"></feGaussianBlur><feComponentTransfer><feFuncA type="linear" slope="0.7" intercept="-0.2"></feFuncA></feComponentTransfer><feOffset dy="4" result="shadow"></feOffset><feGaussianBlur in="SourceGraphic" stdDeviation="0.5"></feGaussianBlur><feOffset dy="0" result="x0"></feOffset><feGaussianBlur in="SourceGraphic" stdDeviation="1"></feGaussianBlur><feComponentTransfer><feFuncA type="linear" slope="0.8" intercept="-.01"></feFuncA></feComponentTransfer><feOffset dy="1" result="x1"></feOffset><feGaussianBlur in="SourceGraphic" stdDeviation="2"></feGaussianBlur><feComponentTransfer><feFuncA type="linear" slope="0.7" intercept="-.01"></feFuncA></feComponentTransfer><feOffset dy="2" result="x2"></feOffset><feGaussianBlur in="SourceGraphic" stdDeviation="3"></feGaussianBlur><feComponentTransfer><feFuncA type="linear" slope="0.6" intercept="-.01"></feFuncA></feComponentTransfer><feOffset dy="3" result="x3"></feOffset><feMerge><feMergeNode in="shadow"></feMergeNode><feMergeNode in="offset"></feMergeNode><feMergeNode in="x3"></feMergeNode><feMergeNode in="x2"></feMergeNode><feMergeNode in="x1"></feMergeNode><feMergeNode in="x0"></feMergeNode></feMerge></filter></defs><g filter="url(#editing-cake)"><g transform="translate(37.44781303405762, 96.98499870300293)"><path d="M29.18 1.28L29.18 1.28L29.18 1.28Q20.99 1.28 20.22-10.37L20.22-10.37L9.22-10.37L9.22-10.37Q7.94-7.42 7.04-4.86L7.04-4.86L5.38 0L-3.58 0L16.58-42.24L30.34-42.24L33.02-11.14L33.02-11.14Q33.66-4.42 36.22-2.43L36.22-2.43L36.22-2.43Q34.37 1.28 29.18 1.28ZM14.72-23.17L11.20-15.04L20.03-15.04L19.26-31.49L19.26-33.22L14.72-23.17ZM87.68-10.69L87.68-10.69Q83.46-4.86 79.39-1.79L79.39-1.79L79.39-1.79Q75.33 1.28 71.14 1.28L71.14 1.28L71.14 1.28Q66.94 1.28 65.47 0.45L65.47 0.45L65.47-13.63L65.47-13.63Q61.82-3.90 55.30-0.13L55.30-0.13L55.30-0.13Q52.93 1.28 50.69 1.28L50.69 1.28L50.69 1.28Q46.40 1.28 44.54 0.45L44.54 0.45L44.54 0.45Q44.10-14.21 43.71-18.27L43.71-18.27L43.71-18.27Q43.33-22.34 43.01-24.83L43.01-24.83L43.01-24.83Q42.37-29.82 40.19-31.87L40.19-31.87L40.19-31.87Q42.94-33.92 46.78-33.92L46.78-33.92L46.78-33.92Q54.21-33.92 55.23-24.70L55.23-24.70L55.23-24.70Q55.49-22.53 55.49-20.22L55.49-20.22L55.49-20.22Q55.49-16.77 54.72-4.74L54.72-4.74L54.72-4.74Q56.26-5.44 57.89-7.97L57.89-7.97L57.89-7.97Q59.52-10.50 60.86-13.95L60.86-13.95L60.86-13.95Q63.87-21.95 63.87-28.86L63.87-28.86L63.87-28.86Q63.87-29.95 63.58-31.10L63.58-31.10L63.58-31.10Q63.30-32.26 62.98-32.58L62.98-32.58L62.98-32.58Q65.22-33.92 68.64-33.92L68.64-33.92L68.64-33.92Q72.06-33.92 73.70-31.58L73.70-31.58L73.70-31.58Q75.33-29.25 75.78-24.96L75.78-24.96L75.78-24.96Q76.29-19.52 76.29-16.26L76.29-16.26L76.29-16.26Q76.29-11.71 75.84-4.99L75.84-4.99L75.84-4.99Q79.04-7.30 81.66-14.85L81.66-14.85L81.66-14.85Q84.29-22.40 84.29-27.78L84.29-27.78L84.29-27.78Q84.29-30.14 83.90-31.55L83.90-31.55L83.90-31.55Q86.02-33.92 89.66-33.92L89.66-33.92L89.66-33.92Q91.90-33.92 93.54-32.70L93.54-32.70L93.54-32.70Q95.17-31.49 95.17-29.22L95.17-29.22L95.17-29.22Q95.17-26.94 94.50-24.51L94.50-24.51L94.50-24.51Q93.82-22.08 92.74-19.58L92.74-19.58L92.74-19.58Q90.62-14.59 87.68-10.69L87.68-10.69ZM122.82-10.82L122.82-10.82L122.82-10.82Q124.42-9.73 124.42-7.33L124.42-7.33L124.42-7.33Q124.42-4.93 123.20-3.39L123.20-3.39L123.20-3.39Q121.98-1.86 120-0.83L120-0.83L120-0.83Q115.90 1.28 111.49 1.28L111.49 1.28L111.49 1.28Q107.07 1.28 104.48 0.32L104.48 0.32L104.48 0.32Q101.89-0.64 100.16-2.43L100.16-2.43L100.16-2.43Q96.77-5.82 96.77-12.03L96.77-12.03L96.77-12.03Q96.77-21.70 102.02-27.58L102.02-27.58L102.02-27.58Q107.65-33.92 117.44-33.92L117.44-33.92L117.44-33.92Q123.52-33.92 126.53-31.36L126.53-31.36L126.53-31.36Q128.77-29.44 128.77-26.30L128.77-26.30L128.77-26.30Q128.77-15.04 109.31-15.04L109.31-15.04L109.31-15.04Q109.06-13.38 109.06-11.97L109.06-11.97L109.06-11.97Q109.06-9.02 110.37-7.90L110.37-7.90L110.37-7.90Q111.68-6.78 114.11-6.78L114.11-6.78L114.11-6.78Q116.54-6.78 119.14-7.90L119.14-7.90L119.14-7.90Q121.73-9.02 122.82-10.82ZM109.76-17.79L109.76-17.79L109.76-17.79Q114.30-17.79 116.93-20.61L116.93-20.61L116.93-20.61Q119.55-23.30 119.55-27.58L119.55-27.58L119.55-27.58Q119.55-29.06 119.01-29.86L119.01-29.86L119.01-29.86Q118.46-30.66 117.38-30.66L117.38-30.66L117.38-30.66Q116.29-30.66 115.36-30.24L115.36-30.24L115.36-30.24Q114.43-29.82 113.47-28.42L113.47-28.42L113.47-28.42Q111.10-25.22 109.76-17.79ZM150.08-22.46L150.08-22.46L150.08-22.46Q150.98-24.83 150.98-26.88L150.98-26.88L150.98-26.88Q150.98-30.66 147.90-30.66L147.90-30.66L147.90-30.66Q146.30-30.66 144.99-29.22L144.99-29.22L144.99-29.22Q143.68-27.78 143.68-25.98L143.68-25.98L143.68-25.98Q143.68-24.70 144.70-23.68L144.70-23.68L144.70-23.68Q146.18-22.27 149.95-19.97L149.95-19.97L149.95-19.97Q153.73-17.66 155.17-15.78L155.17-15.78L155.17-15.78Q156.61-13.89 156.61-11.30L156.61-11.30L156.61-11.30Q156.61-8.70 155.36-6.34L155.36-6.34L155.36-6.34Q154.11-3.97 151.87-2.30L151.87-2.30L151.87-2.30Q147.07 1.28 139.39 1.28L139.39 1.28L139.39 1.28Q135.23 1.28 132.03-0.90L132.03-0.90L132.03-0.90Q128.83-3.01 128.83-5.50L128.83-5.50L128.83-5.50Q128.83-8 130.66-9.47L130.66-9.47L130.66-9.47Q132.48-10.94 135.17-10.94L135.17-10.94L135.17-10.94Q137.86-10.94 139.52-9.92L139.52-9.92L139.52-9.92Q138.69-7.81 138.69-6.40L138.69-6.40L138.69-6.40Q138.69-2.18 142.27-2.18L142.27-2.18L142.27-2.18Q143.81-2.18 144.83-3.14L144.83-3.14L144.83-3.14Q145.86-4.10 145.86-5.76L145.86-5.76L145.86-5.76Q145.86-9.02 140.35-12.48L140.35-12.48L140.35-12.48Q135.87-15.42 134.85-16.58L134.85-16.58L134.85-16.58Q133.12-18.62 133.12-21.18L133.12-21.18L133.12-21.18Q133.12-23.74 134.34-26.18L134.34-26.18L134.34-26.18Q135.55-28.61 137.79-30.34L137.79-30.34L137.79-30.34Q142.46-33.92 150.59-33.92L150.59-33.92L150.59-33.92Q154.75-33.92 157.22-32.26L157.22-32.26L157.22-32.26Q159.68-30.59 159.68-27.78L159.68-27.78L159.68-27.78Q159.68-24.96 157.98-23.36L157.98-23.36L157.98-23.36Q156.29-21.76 153.22-21.76L153.22-21.76L153.22-21.76Q151.10-21.76 150.08-22.46ZM176.00 1.28L176.00 1.28L176.00 1.28Q161.92 1.28 161.92-11.97L161.92-11.97L161.92-11.97Q161.92-21.38 167.10-27.46L167.10-27.46L167.10-27.46Q172.61-33.92 182.14-33.92L182.14-33.92L182.14-33.92Q189.06-33.92 192.58-30.72L192.58-30.72L192.58-30.72Q196.10-27.52 196.10-20.80L196.10-20.80L196.10-20.80Q196.10-10.56 190.59-4.61L190.59-4.61L190.59-4.61Q185.22 1.28 176.00 1.28ZM177.66-26.56L177.66-26.56L177.66-26.56Q176.90-24.83 176.29-22.24L176.29-22.24L176.29-22.24Q175.68-19.65 174.91-15.55L174.91-15.55L174.91-15.55Q174.14-11.46 174.14-6.40L174.14-6.40L174.14-6.40Q174.14-4.74 174.69-3.65L174.69-3.65L174.69-3.65Q175.23-2.56 176.70-2.56L176.70-2.56L176.70-2.56Q178.18-2.56 179.10-3.26L179.10-3.26L179.10-3.26Q180.03-3.97 180.74-5.63L180.74-5.63L180.74-5.63Q182.02-8.58 183.04-14.05L183.04-14.05L183.04-14.05Q184.06-19.52 184.16-21.89L184.16-21.89L184.16-21.89Q184.26-24.26 184.26-26.02L184.26-26.02L184.26-26.02Q184.26-27.78 183.74-28.93L183.74-28.93L183.74-28.93Q183.23-30.08 181.79-30.08L181.79-30.08L181.79-30.08Q180.35-30.08 179.39-29.18L179.39-29.18L179.39-29.18Q178.43-28.29 177.66-26.56ZM245.95 1.28L245.95 1.28L245.95 1.28Q238.21 1.28 238.21-4.74L238.21-4.74L238.21-4.74Q238.21-7.36 239.33-12.45L239.33-12.45L239.33-12.45Q240.45-17.54 240.83-19.58L240.83-19.58L240.83-19.58Q241.73-24.26 241.73-25.73L241.73-25.73L241.73-25.73Q241.73-28.99 239.30-28.99L239.30-28.99L239.30-28.99Q237.70-28.99 236.16-26.78L236.16-26.78L236.16-26.78Q234.62-24.58 233.92-20.16L233.92-20.16L229.95 0L217.47 1.28L220.93-16.13L220.93-16.13Q221.50-19.01 222.02-22.27L222.02-22.27L222.02-22.27Q222.53-25.54 222.53-26.05L222.53-26.05L222.53-26.05Q222.53-28.99 220.35-28.99L220.35-28.99L220.35-28.99Q218.88-28.99 217.28-26.82L217.28-26.82L217.28-26.82Q215.68-24.64 214.78-20.16L214.78-20.16L210.88 0L198.27 1.28L204.99-32.64L215.42-33.92L214.34-27.46L214.34-27.46Q216-30.91 219.07-32.42L219.07-32.42L219.07-32.42Q222.14-33.92 226.94-33.92L226.94-33.92L226.94-33.92Q229.70-33.92 231.49-32.58L231.49-32.58L231.49-32.58Q233.28-31.23 233.86-29.06L233.86-29.06L233.86-29.06Q234.94-31.30 237.73-32.61L237.73-32.61L237.73-32.61Q240.51-33.92 243.94-33.92L243.94-33.92L243.94-33.92Q247.36-33.92 249.06-33.18L249.06-33.18L249.06-33.18Q250.75-32.45 251.78-31.23L251.78-31.23L251.78-31.23Q253.50-28.99 253.50-24.90L253.50-24.90L253.50-24.90Q253.50-20.86 251.78-12.48L251.78-12.48L251.78-12.48Q250.88-8.38 250.88-6.88L250.88-6.88L250.88-6.88Q250.88-5.38 251.74-4.48L251.74-4.48L251.74-4.48Q252.61-3.58 253.89-3.46L253.89-3.46L253.89-3.46Q253.25-1.28 251.04 0L251.04 0L251.04 0Q248.83 1.28 245.95 1.28ZM284.74-10.82L284.74-10.82L284.74-10.82Q286.34-9.73 286.34-7.33L286.34-7.33L286.34-7.33Q286.34-4.93 285.12-3.39L285.12-3.39L285.12-3.39Q283.90-1.86 281.92-0.83L281.92-0.83L281.92-0.83Q277.82 1.28 273.41 1.28L273.41 1.28L273.41 1.28Q268.99 1.28 266.40 0.32L266.40 0.32L266.40 0.32Q263.81-0.64 262.08-2.43L262.08-2.43L262.08-2.43Q258.69-5.82 258.69-12.03L258.69-12.03L258.69-12.03Q258.69-21.70 263.94-27.58L263.94-27.58L263.94-27.58Q269.57-33.92 279.36-33.92L279.36-33.92L279.36-33.92Q285.44-33.92 288.45-31.36L288.45-31.36L288.45-31.36Q290.69-29.44 290.69-26.30L290.69-26.30L290.69-26.30Q290.69-15.04 271.23-15.04L271.23-15.04L271.23-15.04Q270.98-13.38 270.98-11.97L270.98-11.97L270.98-11.97Q270.98-9.02 272.29-7.90L272.29-7.90L272.29-7.90Q273.60-6.78 276.03-6.78L276.03-6.78L276.03-6.78Q278.46-6.78 281.06-7.90L281.06-7.90L281.06-7.90Q283.65-9.02 284.74-10.82ZM271.68-17.79L271.68-17.79L271.68-17.79Q276.22-17.79 278.85-20.61L278.85-20.61L278.85-20.61Q281.47-23.30 281.47-27.58L281.47-27.58L281.47-27.58Q281.47-29.06 280.93-29.86L280.93-29.86L280.93-29.86Q280.38-30.66 279.30-30.66L279.30-30.66L279.30-30.66Q278.21-30.66 277.28-30.24L277.28-30.24L277.28-30.24Q276.35-29.82 275.39-28.42L275.39-28.42L275.39-28.42Q273.02-25.22 271.68-17.79ZM331.07-42.69L331.07-42.69L331.07-42.69Q346.75-42.69 346.75-31.62L346.75-31.62L346.75-31.62Q346.75-25.54 342.85-21.89L342.85-21.89L342.85-21.89Q339.01-18.24 332.29-18.24L332.29-18.24L332.29-18.24Q329.15-18.24 326.72-20.03L326.72-20.03L326.72-20.03Q325.57-20.80 324.80-21.82L324.80-21.82L324.80-21.82Q329.47-21.82 331.94-24.67L331.94-24.67L331.94-24.67Q334.40-27.52 334.40-33.09L334.40-33.09L334.40-33.09Q334.40-38.66 328.90-38.66L328.90-38.66L327.36-38.66L327.36-38.66Q326.98-38.66 326.66-38.59L326.66-38.59L319.30 0L305.41 0L313.28-41.92L313.28-41.92Q320.13-42.56 324.10-42.62L324.10-42.62L324.10-42.62Q328.06-42.69 331.07-42.69ZM348.16-10.37L348.16-10.37L348.16-10.37Q346.11-11.84 346.11-14.66L346.11-14.66L346.11-14.66Q346.11-16.19 346.88-17.44L346.88-17.44L346.88-17.44Q347.65-18.69 349.18-18.88L349.18-18.88L361.79-18.88L361.79-18.88Q363.90-18.88 364.54-20.16L364.54-20.16L364.54-20.16Q365.57-19.58 366.02-18.37L366.02-18.37L366.02-18.37Q366.46-17.15 366.46-15.87L366.46-15.87L366.46-15.87Q366.46-14.59 365.47-13.34L365.47-13.34L365.47-13.34Q364.48-12.10 363.01-11.97L363.01-11.97L351.30-11.97L351.30-11.97Q349.95-11.97 349.31-11.55L349.31-11.55L349.31-11.55Q348.67-11.14 348.16-10.37ZM376.32 0L368.96 0L380.54-42.24L393.92-42.24L396.86-18.11L408.77-42.24L419.97-42.24L421.12-10.62L421.12-10.62Q421.38-4.35 424.45-2.43L424.45-2.43L424.45-2.43Q423.74-1.15 421.70 0.06L421.70 0.06L421.70 0.06Q419.65 1.28 416.93 1.28L416.93 1.28L416.93 1.28Q414.21 1.28 412.61 0.51L412.61 0.51L412.61 0.51Q411.01-0.26 410.11-1.54L410.11-1.54L410.11-1.54Q408.51-3.84 408.51-8.26L408.51-8.26L408.51-28.03L395.90 0L387.97 0L383.49-28.74L376.32 0Z" fill="#83a79d"></path></g></g><style>text {
  font-size: 64px;
  font-family: Arial Black;
  dominant-baseline: central;
  text-anchor: middle;
}</style></svg>